<svg xmlns="http://www.w3.org/2000/svg" width="512" height="512" viewBox="0 0 512 512">
  <g fill="none" fill-rule="evenodd">
    <circle cx="256" cy="256" r="256" fill="#FFC363"/>
    <path fill="#FFFFFF" fill-rule="nonzero" d="M366.408435,118 L146.284129,118 C130.604883,118 118,130.604883 118,146.284129 L118,366.715871 C118,382.395117 130.604883,395 146.284129,395 L366.715871,395 C382.395117,395 395,382.395117 395,366.715871 L395,146.284129 C394.692564,130.604883 382.08768,118 366.408435,118 Z M146.284129,134.294118 L366.715871,134.294118 C373.172031,134.294118 378.705882,139.520533 378.705882,146.284129 L378.705882,174.260821 L134.294118,174.260821 L134.294118,146.284129 C134.294118,139.520533 139.520533,134.294118 146.284129,134.294118 Z M219.45394,310.762486 L219.45394,258.190899 L290.779134,258.190899 L290.779134,310.762486 L219.45394,310.762486 Z M290.779134,327.056604 L290.779134,378.705882 L219.45394,378.705882 L219.45394,327.056604 L290.779134,327.056604 Z M290.779134,190.247503 L290.779134,242.204218 L219.45394,242.204218 L219.45394,190.247503 L290.779134,190.247503 Z M203.159822,242.204218 L134.294118,242.204218 L134.294118,190.247503 L203.159822,190.247503 L203.159822,242.204218 Z M203.159822,258.190899 L203.159822,310.762486 L134.294118,310.762486 L134.294118,258.190899 L203.159822,258.190899 Z M306.765816,258.190899 L378.398446,258.190899 L378.398446,310.762486 L306.765816,310.762486 L306.765816,258.190899 Z M306.765816,242.204218 L306.765816,190.247503 L378.398446,190.247503 L378.398446,242.204218 L306.765816,242.204218 Z M134.294118,366.408435 L134.294118,327.056604 L203.159822,327.056604 L203.159822,378.705882 L146.284129,378.705882 C139.520533,378.398446 134.294118,373.172031 134.294118,366.408435 Z M366.408435,378.398446 L306.765816,378.398446 L306.765816,327.056604 L378.398446,327.056604 L378.398446,366.715871 C378.398446,373.172031 373.172031,378.398446 366.408435,378.398446 Z"/>
  </g>
</svg>
